# xmcd
#
# Track frame offsets: 
#        150
#        18550
#        35422
#        48852
#        66394
#        89562
#        108589
#        129872
#        148039
#        165770
#
# Disc length: 2468 seconds
#
# Revision: 0
# Processed by: cddbd v1.5.2PL0 Copyright (c) Steve Scherf et al.
# Submitted via: ExactAudioCopy v1.0b3
#
DISCID=8109a20a
DTITLE=Carol Duboc - Colored Glasses
DYEAR=2015
DGENRE=Blues
TTITLE0=Hypnotic
TTITLE1=Every Shade of Blue 
TTITLE2=Celestial Skies 
TTITLE3=Wavelength 
TTITLE4=Breathing 
TTITLE5=Trajectory 
TTITLE6=Spinning 
TTITLE7=Colored Glasses 
TTITLE8=Walking In My Sleep 
TTITLE9=Code Red 
EXTD=
EXTT0=
EXTT1=
EXTT2=
EXTT3=
EXTT4=
EXTT5=
EXTT6=
EXTT7=
EXTT8=
EXTT9=
PLAYORDER=
